<?xml version="1.0" encoding="utf-8"?>
<!-- Generator: Adobe Illustrator 19.2.1, SVG Export Plug-In . SVG Version: 6.00 Build 0)  -->
<svg version="1.1" id="Layer_1" xmlns="http://www.w3.org/2000/svg" xmlns:xlink="http://www.w3.org/1999/xlink" x="0px" y="0px"
	 viewBox="0 0 20.2 23.1" style="enable-background:new 0 0 20.2 23.1;" xml:space="preserve">
<style type="text/css">
	.st0{fill:#F06A23;}
</style>
<g>
	<polygon class="st0" points="7.2,10.4 0,3.5 0,0 2.8,0 10.4,7.1 10.4,10.4 	"/>
	<polygon class="st0" points="17,10.4 9.9,3.5 9.9,0 12.6,0 20.2,7.1 20.2,10.4 	"/>
	<polygon class="st0" points="7.2,12.7 0,19.6 0,23.1 2.8,23.1 10.4,16 10.4,12.7 	"/>
	<polygon class="st0" points="17,12.7 9.9,19.6 9.9,23.1 12.6,23.1 20.2,16 20.2,12.7 	"/>
	<path class="st0" d="M18.5,18.5l0.1,0l0.1,0.4l0.1-0.4l0.1,0l0,0.5l-0.1,0l0-0.4h0L18.8,19l0,0L18.5,18.5L18.5,18.5l0.1,0.5l-0.1,0
		L18.5,18.5z M18.2,18.6l-0.1,0l0-0.1l0.3,0l0,0.1L18.2,18.6l0.1,0.4l-0.1,0L18.2,18.6z"/>
</g>
</svg>
